<svg xmlns="http://www.w3.org/2000/svg" xmlns:svg="http://www.w3.org/2000/svg" id="svg2" width="313.315" height="181.418" version="1.1" viewBox="0 0 293.733 170.079" style="enable-background:new"><metadata id="metadata7"/><path id="rect3347" d="m 4.04806,0.19494 0,169.68946 283.07422,0 0,-169.68946 -283.07422,0 z M 113.36642,4.7008 a 1.580587,1.580587 0 0 1 1.58008,1.58008 1.580587,1.580587 0 0 1 -1.58008,1.58203 1.580587,1.580587 0 0 1 -1.58008,-1.58203 1.580587,1.580587 0 0 1 1.58008,-1.58008 z m 9.03125,0 a 1.580587,1.580587 0 0 1 1.58203,1.58008 1.580587,1.580587 0 0 1 -1.58203,1.58203 1.580587,1.580587 0 0 1 -1.58008,-1.58203 1.580587,1.580587 0 0 1 1.58008,-1.58008 z m 9.0332,0 a 1.580587,1.580587 0 0 1 1.58008,1.58008 1.580587,1.580587 0 0 1 -1.58008,1.58203 1.580587,1.580587 0 0 1 -1.58007,-1.58203 1.580587,1.580587 0 0 1 1.58007,-1.58008 z m 9.03321,0 a 1.580587,1.580587 0 0 1 1.58007,1.58008 1.580587,1.580587 0 0 1 -1.58007,1.58203 1.580587,1.580587 0 0 1 -1.58204,-1.58203 1.580587,1.580587 0 0 1 1.58204,-1.58008 z m 9.03125,0 a 1.580587,1.580587 0 0 1 1.58007,1.58008 1.580587,1.580587 0 0 1 -1.58007,1.58203 1.580587,1.580587 0 0 1 -1.58008,-1.58203 1.580587,1.580587 0 0 1 1.58008,-1.58008 z m 9.0332,0 a 1.580587,1.580587 0 0 1 1.58008,1.58008 1.580587,1.580587 0 0 1 -1.58008,1.58203 1.580587,1.580587 0 0 1 -1.58203,-1.58203 1.580587,1.580587 0 0 1 1.58203,-1.58008 z m 9.03125,0 a 1.580587,1.580587 0 0 1 1.58203,1.58008 1.580587,1.580587 0 0 1 -1.58203,1.58203 1.580587,1.580587 0 0 1 -1.58008,-1.58203 1.580587,1.580587 0 0 1 1.58008,-1.58008 z m 9.0332,0 a 1.580587,1.580587 0 0 1 1.58008,1.58008 1.580587,1.580587 0 0 1 -1.58008,1.58203 1.580587,1.580587 0 0 1 -1.58008,-1.58203 1.580587,1.580587 0 0 1 1.58008,-1.58008 z m 9.03125,0 a 1.580587,1.580587 0 0 1 1.58203,1.58008 1.580587,1.580587 0 0 1 -1.58203,1.58203 1.580587,1.580587 0 0 1 -1.58008,-1.58203 1.580587,1.580587 0 0 1 1.58008,-1.58008 z m 9.03321,0 a 1.580587,1.580587 0 0 1 1.58007,1.58008 1.580587,1.580587 0 0 1 -1.58007,1.58203 1.580587,1.580587 0 0 1 -1.58008,-1.58203 1.580587,1.580587 0 0 1 1.58008,-1.58008 z m 9.0332,0 a 1.580587,1.580587 0 0 1 1.58008,1.58008 1.580587,1.580587 0 0 1 -1.58008,1.58203 1.580587,1.580587 0 0 1 -1.58203,-1.58203 1.580587,1.580587 0 0 1 1.58203,-1.58008 z m 9.03125,0 a 1.580587,1.580587 0 0 1 1.58008,1.58008 1.580587,1.580587 0 0 1 -1.58008,1.58203 1.580587,1.580587 0 0 1 -1.58008,-1.58203 1.580587,1.580587 0 0 1 1.58008,-1.58008 z m 9.0332,0 a 1.580587,1.580587 0 0 1 1.58008,1.58008 1.580587,1.580587 0 0 1 -1.58008,1.58203 1.580587,1.580587 0 0 1 -1.58008,-1.58203 1.580587,1.580587 0 0 1 1.58008,-1.58008 z m 9.03125,0 a 1.580587,1.580587 0 0 1 1.58203,1.58008 1.580587,1.580587 0 0 1 -1.58203,1.58203 1.580587,1.580587 0 0 1 -1.58008,-1.58203 1.580587,1.580587 0 0 1 1.58008,-1.58008 z m 9.0332,0 a 1.580587,1.580587 0 0 1 1.58008,1.58008 1.580587,1.580587 0 0 1 -1.58008,1.58203 1.580587,1.580587 0 0 1 -1.58007,-1.58203 1.580587,1.580587 0 0 1 1.58007,-1.58008 z m 9.03321,0 a 1.580587,1.580587 0 0 1 1.58008,1.58008 1.580587,1.580587 0 0 1 -1.58008,1.58203 1.580587,1.580587 0 0 1 -1.58203,-1.58203 1.580587,1.580587 0 0 1 1.58203,-1.58008 z m 9.03125,0 A 1.580587,1.580587 0 0 1 259.46408,6.28088 1.580587,1.580587 0 0 1 257.884,7.86291 1.580587,1.580587 0 0 1 256.30392,6.28088 1.580587,1.580587 0 0 1 257.884,4.7008 Z m 9.0332,0 a 1.580587,1.580587 0 0 1 1.58008,1.58008 1.580587,1.580587 0 0 1 -1.58008,1.58203 1.580587,1.580587 0 0 1 -1.58203,-1.58203 1.580587,1.580587 0 0 1 1.58203,-1.58008 z m 10.98828,0.60938 a 3.5433071,3.5433071 0 0 1 3.54297,3.54297 3.5433071,3.5433071 0 0 1 -3.54297,3.54297 3.5433071,3.5433071 0 0 1 -3.54492,-3.54297 3.5433071,3.5433071 0 0 1 3.54492,-3.54297 z M 10.47384,157.95276 a 3.5433071,3.5433071 0 0 1 3.54297,3.54296 3.5433071,3.5433071 0 0 1 -3.54297,3.54297 3.5433071,3.5433071 0 0 1 -3.54297,-3.54297 3.5433071,3.5433071 0 0 1 3.54297,-3.54296 z m 102.92188,4.41601 a 1.580587,1.580587 0 0 1 1.58008,1.58008 1.580587,1.580587 0 0 1 -1.58008,1.58203 1.580587,1.580587 0 0 1 -1.58203,-1.58203 1.580587,1.580587 0 0 1 1.58203,-1.58008 z m 9.03125,0 a 1.580587,1.580587 0 0 1 1.58203,1.58008 1.580587,1.580587 0 0 1 -1.58203,1.58203 1.580587,1.580587 0 0 1 -1.58008,-1.58203 1.580587,1.580587 0 0 1 1.58008,-1.58008 z m 9.0332,0 a 1.580587,1.580587 0 0 1 1.58008,1.58008 1.580587,1.580587 0 0 1 -1.58008,1.58203 1.580587,1.580587 0 0 1 -1.58008,-1.58203 1.580587,1.580587 0 0 1 1.58008,-1.58008 z m 9.03125,0 a 1.580587,1.580587 0 0 1 1.58203,1.58008 1.580587,1.580587 0 0 1 -1.58203,1.58203 1.580587,1.580587 0 0 1 -1.58008,-1.58203 1.580587,1.580587 0 0 1 1.58008,-1.58008 z m 9.0332,0 a 1.580587,1.580587 0 0 1 1.58008,1.58008 1.580587,1.580587 0 0 1 -1.58008,1.58203 1.580587,1.580587 0 0 1 -1.58008,-1.58203 1.580587,1.580587 0 0 1 1.58008,-1.58008 z m 9.03321,0 a 1.580587,1.580587 0 0 1 1.58007,1.58008 1.580587,1.580587 0 0 1 -1.58007,1.58203 1.580587,1.580587 0 0 1 -1.58203,-1.58203 1.580587,1.580587 0 0 1 1.58203,-1.58008 z m 9.03125,0 a 1.580587,1.580587 0 0 1 1.58007,1.58008 1.580587,1.580587 0 0 1 -1.58007,1.58203 1.580587,1.580587 0 0 1 -1.58008,-1.58203 1.580587,1.580587 0 0 1 1.58008,-1.58008 z m 9.0332,0 a 1.580587,1.580587 0 0 1 1.58008,1.58008 1.580587,1.580587 0 0 1 -1.58008,1.58203 1.580587,1.580587 0 0 1 -1.58203,-1.58203 1.580587,1.580587 0 0 1 1.58203,-1.58008 z m 9.03125,0 a 1.580587,1.580587 0 0 1 1.58203,1.58008 1.580587,1.580587 0 0 1 -1.58203,1.58203 1.580587,1.580587 0 0 1 -1.58008,-1.58203 1.580587,1.580587 0 0 1 1.58008,-1.58008 z m 9.0332,0 a 1.580587,1.580587 0 0 1 1.58008,1.58008 1.580587,1.580587 0 0 1 -1.58008,1.58203 1.580587,1.580587 0 0 1 -1.58008,-1.58203 1.580587,1.580587 0 0 1 1.58008,-1.58008 z m 9.03125,0 a 1.580587,1.580587 0 0 1 1.58203,1.58008 1.580587,1.580587 0 0 1 -1.58203,1.58203 1.580587,1.580587 0 0 1 -1.58008,-1.58203 1.580587,1.580587 0 0 1 1.58008,-1.58008 z m 9.03321,0 a 1.580587,1.580587 0 0 1 1.58007,1.58008 1.580587,1.580587 0 0 1 -1.58007,1.58203 1.580587,1.580587 0 0 1 -1.58008,-1.58203 1.580587,1.580587 0 0 1 1.58008,-1.58008 z m 9.0332,0 a 1.580587,1.580587 0 0 1 1.58008,1.58008 1.580587,1.580587 0 0 1 -1.58008,1.58203 1.580587,1.580587 0 0 1 -1.58203,-1.58203 1.580587,1.580587 0 0 1 1.58203,-1.58008 z m 9.03125,0 a 1.580587,1.580587 0 0 1 1.58008,1.58008 1.580587,1.580587 0 0 1 -1.58008,1.58203 1.580587,1.580587 0 0 1 -1.58008,-1.58203 1.580587,1.580587 0 0 1 1.58008,-1.58008 z m 9.0332,0 a 1.580587,1.580587 0 0 1 1.58008,1.58008 1.580587,1.580587 0 0 1 -1.58008,1.58203 1.580587,1.580587 0 0 1 -1.58008,-1.58203 1.580587,1.580587 0 0 1 1.58008,-1.58008 z m 9.03125,0 a 1.580587,1.580587 0 0 1 1.58203,1.58008 1.580587,1.580587 0 0 1 -1.58203,1.58203 1.580587,1.580587 0 0 1 -1.58008,-1.58203 1.580587,1.580587 0 0 1 1.58008,-1.58008 z m 9.03321,0 a 1.580587,1.580587 0 0 1 1.58007,1.58008 1.580587,1.580587 0 0 1 -1.58007,1.58203 1.580587,1.580587 0 0 1 -1.58008,-1.58203 1.580587,1.580587 0 0 1 1.58008,-1.58008 z m 9.03124,0 a 1.580587,1.580587 0 0 1 1.58204,1.58008 1.580587,1.580587 0 0 1 -1.58204,1.58203 1.580587,1.580587 0 0 1 -1.58007,-1.58203 1.580587,1.580587 0 0 1 1.58007,-1.58008 z" style="fill:red;fill-rule:evenodd;stroke:#000;stroke-width:.38988742px;stroke-linecap:butt;stroke-linejoin:miter;stroke-opacity:1"/><rect id="rect4155" width="67.727" height="67.727" x="114.591" y="41.237" style="fill:#1a1a1a"/><rect id="rect4157" width="21.364" height="20.909" x="194.591" y="27.601" style="fill:#1a1a1a"/><rect id="rect4159" width="40.909" height="29.091" x="56.41" y="26.237" style="fill:#1a1a1a"/><rect id="rect4161" width="40.909" height="28.182" x="55.5" y="82.601" style="fill:#1a1a1a"/><rect id="rect4163" width="22.273" height="22.273" x="194.591" y="109.873" style="fill:#1a1a1a"/><rect id="rect4165" width="19.091" height="18.636" x="45.955" y="133.51" style="fill:#1a1a1a"/><rect id="rect4169" width="35.455" height="23.182" x="255.501" y="21.237" style="fill:#4d4d4d"/><rect id="rect4171" width="52.727" height="47.727" x="240.955" y="99.419" style="fill:#ccc"/><rect id="rect4175" width="20" height="25.455" x="1.864" y="120.782" style="fill:#ccc"/><rect id="rect4177" width="27.727" height="23.182" x=".046" y="72.146" style="fill:#fea"/><rect id="rect4179" width="22.273" height="13.636" x="83.682" y="137.601" style="fill:#ccc"/><rect id="rect4181" width="10.909" height="4.545" x="88.682" y="142.146" style="fill:#fff6d5"/><rect id="rect4189" width="22.159" height=".909" x="83.796" y="137.487" style="fill:#f9f9f9"/><rect id="rect4202" width="22.045" height=".682" x="83.682" y="150.555" style="fill:#b3b3b3"/><path id="rect4208" d="m 255.56295,21.20864 1.94546,0 0,21.4274 -1.94546,1.5498 z" style="fill:#333"/><path id="rect4210" d="m 257.53177,42.52824 33.29942,-0.2583 0,1.9668 -35.23671,0 z" style="fill:#1a1a1a"/><rect id="rect4248" width="52.672" height="2.38" x="240.903" y="99.287" style="fill:#e6e6e6"/><rect id="rect4252" width="52.672" height="1.904" x="241.061" y="145.136" style="fill:#b3b3b3"/><rect id="rect4254" width="20.059" height="1.283" x="1.785" y="-146.175" transform="scale(1,-1)" style="fill:#b3b3b3"/><rect id="rect4298" width="20.069" height="1.556" x="1.858" y="120.632" style="fill:#e6e6e6"/><rect id="rect4300" width="1.322" height="25.514" x="20.527" y="120.632" ry="0" style="fill:#4d4d4d"/><rect id="rect4325" width="5" height="23.237" x="22.862" y="72.122" style="fill:#806600"/><rect id="rect4327" width="22.774" height=".882" x="0" y="72.076" style="fill:#fff6d5"/><rect id="rect4329" width="22.855" height=".962" x="0" y="94.369" style="fill:#ffe680"/><text id="text4331" x="20.263" y="7.52" style="font-style:normal;font-variant:normal;font-weight:400;font-stretch:normal;font-size:3.99999976px;line-height:125%;font-family:OCRA;-inkscape-font-specification:OCRA;letter-spacing:0;word-spacing:0;fill:#fff;fill-opacity:1;stroke:none;stroke-width:1px;stroke-linecap:butt;stroke-linejoin:miter;stroke-opacity:1" xml:space="preserve"><tspan style="font-style:normal;font-variant:normal;font-weight:400;font-stretch:normal;font-size:5.99999952px;font-family:OCRA;-inkscape-font-specification:OCRA;fill:#fff" id="tspan4333" x="20.263" y="7.52">Open Sourse Hardware</tspan></text><text id="text4335" x="34.899" y="15.595" style="font-style:normal;font-variant:normal;font-weight:400;font-stretch:normal;font-size:5.99999952px;line-height:125%;font-family:OCRA;-inkscape-font-specification:OCRA;letter-spacing:0;word-spacing:0;fill:#000;fill-opacity:1;stroke:none;stroke-width:1px;stroke-linecap:butt;stroke-linejoin:miter;stroke-opacity:1" xml:space="preserve"><tspan style="font-style:normal;font-variant:normal;font-weight:400;font-stretch:normal;font-family:OCRA;-inkscape-font-specification:OCRA;fill:#fff" id="tspan4337" x="34.899" y="15.595">Designed for B2G</tspan></text><text id="text4339" x="28.244" y="165.995" style="font-style:normal;font-variant:normal;font-weight:400;font-stretch:normal;font-size:5.99999952px;line-height:125%;font-family:OCRA;-inkscape-font-specification:OCRA;letter-spacing:0;word-spacing:0;fill:#000;fill-opacity:1;stroke:none;stroke-width:1px;stroke-linecap:butt;stroke-linejoin:miter;stroke-opacity:1" xml:space="preserve"><tspan style="font-style:normal;font-variant:normal;font-weight:400;font-stretch:normal;font-size:4.99999952px;font-family:OCRA;-inkscape-font-specification:OCRA;fill:#fff" id="tspan4341" x="28.244" y="165.995">CHIRIMEN</tspan></text><text id="text4364" x="77.602" y="156.116" style="font-style:normal;font-variant:normal;font-weight:400;font-stretch:normal;font-size:5.99999952px;line-height:125%;font-family:OCRA;-inkscape-font-specification:OCRA;letter-spacing:0;word-spacing:0;fill:#fff;fill-opacity:1;stroke:none;stroke-width:1px;stroke-linecap:butt;stroke-linejoin:miter;stroke-opacity:1" xml:space="preserve"><tspan style="font-style:normal;font-variant:normal;font-weight:400;font-stretch:normal;font-size:4.5px;font-family:OCRA;-inkscape-font-specification:OCRA;fill:#fff" id="tspan4366" x="77.602" y="156.116">Recover Mode</tspan></text><path id="path4387" d="m 277.85275,3.09924 a 5.7419705,5.7419715 0 0 0 -5.74219,5.74219 5.7419705,5.7419715 0 0 0 5.74219,5.74219 5.7419705,5.7419715 0 0 0 5.74219,-5.74219 5.7419705,5.7419715 0 0 0 -5.74219,-5.74219 z m 0.0527,2.21094 a 3.5433071,3.5433071 0 0 1 3.54297,3.54297 3.5433071,3.5433071 0 0 1 -3.54297,3.54297 3.5433071,3.5433071 0 0 1 -3.54492,-3.54297 3.5433071,3.5433071 0 0 1 3.54492,-3.54297 z" style="fill:#ffe680"/><path id="path4387-8" d="m 10.44212,155.79235 a 5.7419705,5.7419715 0 0 0 -5.74219,5.74219 5.7419705,5.7419715 0 0 0 5.74219,5.74219 5.7419705,5.7419715 0 0 0 5.74219,-5.74219 5.7419705,5.7419715 0 0 0 -5.74219,-5.74219 z m 0.0527,2.21094 a 3.5433071,3.5433071 0 0 1 3.54297,3.54297 3.5433071,3.5433071 0 0 1 -3.54297,3.54297 3.5433071,3.5433071 0 0 1 -3.54492,-3.54297 3.5433071,3.5433071 0 0 1 3.54492,-3.54297 z" style="display:inline;fill:#ffe680"/><rect id="rect5211" width="162.429" height="8.579" x="108.738" y="1.786" style="fill:none"/><rect id="rect5213" width="161.857" height="8.007" x="108.738" y="2.358" style="fill:none;stroke:#fff;stroke-opacity:1"/><rect id="rect5215" width="164.717" height="10.295" x="107.594" y="158.495" style="fill:none;stroke:#fff;stroke-opacity:1"/><rect id="rect5217" width="9.314" height="4.312" x="240.655" y="88.374" style="fill:#e6e6e6;fill-opacity:1;stroke:none;stroke-opacity:1"/><rect id="rect5219" width="3.622" height="4.312" x="244.967" y="88.374" style="fill:#ffe680;fill-opacity:1;stroke:none;stroke-opacity:1"/><rect id="rect5217-8" width="9.314" height="4.312" x="240.483" y="81.044" style="display:inline;fill:#e6e6e6;fill-opacity:1;stroke:none;stroke-opacity:1"/><rect id="rect5219-9" width="3.622" height="4.312" x="244.795" y="81.044" style="display:inline;fill:#ffe680;fill-opacity:1;stroke:none;stroke-opacity:1"/><rect id="rect5239-2" width="5.853" height="3.13" x="3.464" y="123.93" style="display:inline;fill:#999;fill-opacity:1;stroke:none;stroke-opacity:1"/><rect id="rect5239-3-0" width="5.853" height="3.13" x="3.34" y="140.571" style="display:inline;fill:#999;fill-opacity:1;stroke:none;stroke-opacity:1"/><path id="path5276" d="m 9.65702,75.51497 -8.37463,0.85894 0,3.54311 8.26727,0.75157" style="fill:none;fill-rule:evenodd;stroke:#806600;stroke-width:1px;stroke-linecap:butt;stroke-linejoin:miter;stroke-opacity:1"/><path id="path5276-9" d="m 9.88152,86.5735 -8.37463,0.85894 0,3.54311 8.26727,0.75157" style="display:inline;fill:none;fill-rule:evenodd;stroke:#806600;stroke-width:1px;stroke-linecap:butt;stroke-linejoin:miter;stroke-opacity:1"/><path id="path4628" d="m 113.36642,3.62347 a 2.6574802,2.6574802 0 0 0 -2.6582,2.65821 2.6574802,2.6574802 0 0 0 2.6582,2.6582 2.6574802,2.6574802 0 0 0 2.65625,-2.6582 2.6574802,2.6574802 0 0 0 -2.65625,-2.65821 z m 0,1.07813 a 1.580587,1.580587 0 0 1 1.58008,1.58008 1.580587,1.580587 0 0 1 -1.58008,1.58008 1.580587,1.580587 0 0 1 -1.58008,-1.58008 1.580587,1.580587 0 0 1 1.58008,-1.58008 z" style="display:inline;fill:#ffe680;enable-background:new"/><path id="path4628-5" d="m 122.3988,3.62347 a 2.6574802,2.6574802 0 0 0 -2.6582,2.65821 2.6574802,2.6574802 0 0 0 2.6582,2.6582 2.6574802,2.6574802 0 0 0 2.65625,-2.6582 2.6574802,2.6574802 0 0 0 -2.65625,-2.65821 z m 0,1.07813 a 1.580587,1.580587 0 0 1 1.58008,1.58008 1.580587,1.580587 0 0 1 -1.58008,1.58008 1.580587,1.580587 0 0 1 -1.58008,-1.58008 1.580587,1.580587 0 0 1 1.58008,-1.58008 z" style="display:inline;fill:#ffe680;enable-background:new"/><path id="path4628-8" d="m 131.43117,3.62347 a 2.6574802,2.6574802 0 0 0 -2.6582,2.65821 2.6574802,2.6574802 0 0 0 2.6582,2.6582 2.6574802,2.6574802 0 0 0 2.65625,-2.6582 2.6574802,2.6574802 0 0 0 -2.65625,-2.65821 z m 0,1.07813 a 1.580587,1.580587 0 0 1 1.58008,1.58008 1.580587,1.580587 0 0 1 -1.58008,1.58008 1.580587,1.580587 0 0 1 -1.58008,-1.58008 1.580587,1.580587 0 0 1 1.58008,-1.58008 z" style="display:inline;fill:#ffe680;enable-background:new"/><path id="path4628-5-1" d="m 140.46355,3.62347 a 2.6574802,2.6574802 0 0 0 -2.6582,2.65821 2.6574802,2.6574802 0 0 0 2.6582,2.6582 2.6574802,2.6574802 0 0 0 2.65625,-2.6582 2.6574802,2.6574802 0 0 0 -2.65625,-2.65821 z m 0,1.07813 a 1.580587,1.580587 0 0 1 1.58008,1.58008 1.580587,1.580587 0 0 1 -1.58008,1.58008 1.580587,1.580587 0 0 1 -1.58008,-1.58008 1.580587,1.580587 0 0 1 1.58008,-1.58008 z" style="display:inline;fill:#ffe680;enable-background:new"/><path id="path4628-2" d="m 149.49593,3.62347 a 2.6574802,2.6574802 0 0 0 -2.6582,2.65821 2.6574802,2.6574802 0 0 0 2.6582,2.6582 2.6574802,2.6574802 0 0 0 2.65625,-2.6582 2.6574802,2.6574802 0 0 0 -2.65625,-2.65821 z m 0,1.07813 a 1.580587,1.580587 0 0 1 1.58008,1.58008 1.580587,1.580587 0 0 1 -1.58008,1.58008 1.580587,1.580587 0 0 1 -1.58008,-1.58008 1.580587,1.580587 0 0 1 1.58008,-1.58008 z" style="display:inline;fill:#ffe680;enable-background:new"/><path id="path4628-5-17" d="m 158.52831,3.62347 a 2.6574802,2.6574802 0 0 0 -2.6582,2.65821 2.6574802,2.6574802 0 0 0 2.6582,2.6582 2.6574802,2.6574802 0 0 0 2.65625,-2.6582 2.6574802,2.6574802 0 0 0 -2.65625,-2.65821 z m 0,1.07813 a 1.580587,1.580587 0 0 1 1.58008,1.58008 1.580587,1.580587 0 0 1 -1.58008,1.58008 1.580587,1.580587 0 0 1 -1.58008,-1.58008 1.580587,1.580587 0 0 1 1.58008,-1.58008 z" style="display:inline;fill:#ffe680;enable-background:new"/><path id="path4628-8-2" d="m 167.56069,3.62347 a 2.6574802,2.6574802 0 0 0 -2.6582,2.65821 2.6574802,2.6574802 0 0 0 2.6582,2.6582 2.6574802,2.6574802 0 0 0 2.65625,-2.6582 2.6574802,2.6574802 0 0 0 -2.65625,-2.65821 z m 0,1.07813 a 1.580587,1.580587 0 0 1 1.58008,1.58008 1.580587,1.580587 0 0 1 -1.58008,1.58008 1.580587,1.580587 0 0 1 -1.58008,-1.58008 1.580587,1.580587 0 0 1 1.58008,-1.58008 z" style="display:inline;fill:#ffe680;enable-background:new"/><path id="path4628-5-1-1" d="m 176.59307,3.62347 a 2.6574802,2.6574802 0 0 0 -2.6582,2.65821 2.6574802,2.6574802 0 0 0 2.6582,2.6582 2.6574802,2.6574802 0 0 0 2.65625,-2.6582 2.6574802,2.6574802 0 0 0 -2.65625,-2.65821 z m 0,1.07813 a 1.580587,1.580587 0 0 1 1.58008,1.58008 1.580587,1.580587 0 0 1 -1.58008,1.58008 1.580587,1.580587 0 0 1 -1.58008,-1.58008 1.580587,1.580587 0 0 1 1.58008,-1.58008 z" style="display:inline;fill:#ffe680;enable-background:new"/><path id="path4628-1" d="m 185.62545,3.62347 a 2.6574802,2.6574802 0 0 0 -2.6582,2.65821 2.6574802,2.6574802 0 0 0 2.6582,2.6582 2.6574802,2.6574802 0 0 0 2.65625,-2.6582 2.6574802,2.6574802 0 0 0 -2.65625,-2.65821 z m 0,1.07813 a 1.580587,1.580587 0 0 1 1.58008,1.58008 1.580587,1.580587 0 0 1 -1.58008,1.58008 1.580587,1.580587 0 0 1 -1.58008,-1.58008 1.580587,1.580587 0 0 1 1.58008,-1.58008 z" style="display:inline;fill:#ffe680;enable-background:new"/><path id="path4628-5-5" d="m 194.65783,3.62347 a 2.6574802,2.6574802 0 0 0 -2.6582,2.65821 2.6574802,2.6574802 0 0 0 2.6582,2.6582 2.6574802,2.6574802 0 0 0 2.65625,-2.6582 2.6574802,2.6574802 0 0 0 -2.65625,-2.65821 z m 0,1.07813 a 1.580587,1.580587 0 0 1 1.58008,1.58008 1.580587,1.580587 0 0 1 -1.58008,1.58008 1.580587,1.580587 0 0 1 -1.58008,-1.58008 1.580587,1.580587 0 0 1 1.58008,-1.58008 z" style="display:inline;fill:#ffe680;enable-background:new"/><path id="path4628-8-9" d="m 203.69021,3.62347 a 2.6574802,2.6574802 0 0 0 -2.6582,2.65821 2.6574802,2.6574802 0 0 0 2.6582,2.6582 2.6574802,2.6574802 0 0 0 2.65625,-2.6582 2.6574802,2.6574802 0 0 0 -2.65625,-2.65821 z m 0,1.07813 a 1.580587,1.580587 0 0 1 1.58008,1.58008 1.580587,1.580587 0 0 1 -1.58008,1.58008 1.580587,1.580587 0 0 1 -1.58008,-1.58008 1.580587,1.580587 0 0 1 1.58008,-1.58008 z" style="display:inline;fill:#ffe680;enable-background:new"/><path id="path4628-5-1-0" d="m 212.72259,3.62347 a 2.6574802,2.6574802 0 0 0 -2.6582,2.65821 2.6574802,2.6574802 0 0 0 2.6582,2.6582 2.6574802,2.6574802 0 0 0 2.65625,-2.6582 2.6574802,2.6574802 0 0 0 -2.65625,-2.65821 z m 0,1.07813 a 1.580587,1.580587 0 0 1 1.58008,1.58008 1.580587,1.580587 0 0 1 -1.58008,1.58008 1.580587,1.580587 0 0 1 -1.58008,-1.58008 1.580587,1.580587 0 0 1 1.58008,-1.58008 z" style="display:inline;fill:#ffe680;enable-background:new"/><path id="path4628-3" d="m 221.75497,3.62347 a 2.6574802,2.6574802 0 0 0 -2.6582,2.65821 2.6574802,2.6574802 0 0 0 2.6582,2.6582 2.6574802,2.6574802 0 0 0 2.65625,-2.6582 2.6574802,2.6574802 0 0 0 -2.65625,-2.65821 z m 0,1.07813 a 1.580587,1.580587 0 0 1 1.58008,1.58008 1.580587,1.580587 0 0 1 -1.58008,1.58008 1.580587,1.580587 0 0 1 -1.58008,-1.58008 1.580587,1.580587 0 0 1 1.58008,-1.58008 z" style="display:inline;fill:#ffe680;enable-background:new"/><path id="path4628-5-8" d="m 230.78735,3.62347 a 2.6574802,2.6574802 0 0 0 -2.6582,2.65821 2.6574802,2.6574802 0 0 0 2.6582,2.6582 2.6574802,2.6574802 0 0 0 2.65625,-2.6582 2.6574802,2.6574802 0 0 0 -2.65625,-2.65821 z m 0,1.07813 a 1.580587,1.580587 0 0 1 1.58008,1.58008 1.580587,1.580587 0 0 1 -1.58008,1.58008 1.580587,1.580587 0 0 1 -1.58008,-1.58008 1.580587,1.580587 0 0 1 1.58008,-1.58008 z" style="display:inline;fill:#ffe680;enable-background:new"/><path id="path4628-8-6" d="m 239.81973,3.62347 a 2.6574802,2.6574802 0 0 0 -2.6582,2.65821 2.6574802,2.6574802 0 0 0 2.6582,2.6582 2.6574802,2.6574802 0 0 0 2.65625,-2.6582 2.6574802,2.6574802 0 0 0 -2.65625,-2.65821 z m 0,1.07813 a 1.580587,1.580587 0 0 1 1.58008,1.58008 1.580587,1.580587 0 0 1 -1.58008,1.58008 1.580587,1.580587 0 0 1 -1.58008,-1.58008 1.580587,1.580587 0 0 1 1.58008,-1.58008 z" style="display:inline;fill:#ffe680;enable-background:new"/><path id="path4628-5-1-6" d="m 248.8521,3.62347 a 2.6574802,2.6574802 0 0 0 -2.6582,2.65821 2.6574802,2.6574802 0 0 0 2.6582,2.6582 2.6574802,2.6574802 0 0 0 2.65625,-2.6582 2.6574802,2.6574802 0 0 0 -2.65625,-2.65821 z m 0,1.07813 a 1.580587,1.580587 0 0 1 1.58008,1.58008 1.580587,1.580587 0 0 1 -1.58008,1.58008 1.580587,1.580587 0 0 1 -1.58008,-1.58008 1.580587,1.580587 0 0 1 1.58008,-1.58008 z" style="display:inline;fill:#ffe680;enable-background:new"/><path id="path4628-8-6-6" d="m 257.88448,3.62347 a 2.6574802,2.6574802 0 0 0 -2.6582,2.65821 2.6574802,2.6574802 0 0 0 2.6582,2.6582 2.6574802,2.6574802 0 0 0 2.65625,-2.6582 2.6574802,2.6574802 0 0 0 -2.65625,-2.65821 z m 0,1.07813 a 1.580587,1.580587 0 0 1 1.58008,1.58008 1.580587,1.580587 0 0 1 -1.58008,1.58008 1.580587,1.580587 0 0 1 -1.58008,-1.58008 1.580587,1.580587 0 0 1 1.58008,-1.58008 z" style="display:inline;fill:#ffe680;enable-background:new"/><path id="path4628-5-1-6-7" d="m 266.91686,3.62347 a 2.6574802,2.6574802 0 0 0 -2.6582,2.65821 2.6574802,2.6574802 0 0 0 2.6582,2.6582 2.6574802,2.6574802 0 0 0 2.65625,-2.6582 2.6574802,2.6574802 0 0 0 -2.65625,-2.65821 z m 0,1.07813 a 1.580587,1.580587 0 0 1 1.58008,1.58008 1.580587,1.580587 0 0 1 -1.58008,1.58008 1.580587,1.580587 0 0 1 -1.58008,-1.58008 1.580587,1.580587 0 0 1 1.58008,-1.58008 z" style="display:inline;fill:#ffe680;enable-background:new"/><path id="path4628-55" d="m 113.39534,161.29162 a 2.6574802,2.6574802 0 0 0 -2.6582,2.65821 2.6574802,2.6574802 0 0 0 2.6582,2.6582 2.6574802,2.6574802 0 0 0 2.65625,-2.6582 2.6574802,2.6574802 0 0 0 -2.65625,-2.65821 z m 0,1.07813 a 1.580587,1.580587 0 0 1 1.58008,1.58008 1.580587,1.580587 0 0 1 -1.58008,1.58008 1.580587,1.580587 0 0 1 -1.58008,-1.58008 1.580587,1.580587 0 0 1 1.58008,-1.58008 z" style="display:inline;fill:#ffe680;enable-background:new"/><path id="path4628-5-3" d="m 122.42772,161.29162 a 2.6574802,2.6574802 0 0 0 -2.6582,2.65821 2.6574802,2.6574802 0 0 0 2.6582,2.6582 2.6574802,2.6574802 0 0 0 2.65625,-2.6582 2.6574802,2.6574802 0 0 0 -2.65625,-2.65821 z m 0,1.07813 a 1.580587,1.580587 0 0 1 1.58008,1.58008 1.580587,1.580587 0 0 1 -1.58008,1.58008 1.580587,1.580587 0 0 1 -1.58008,-1.58008 1.580587,1.580587 0 0 1 1.58008,-1.58008 z" style="display:inline;fill:#ffe680;enable-background:new"/><path id="path4628-8-1" d="m 131.46009,161.29162 a 2.6574802,2.6574802 0 0 0 -2.6582,2.65821 2.6574802,2.6574802 0 0 0 2.6582,2.6582 2.6574802,2.6574802 0 0 0 2.65625,-2.6582 2.6574802,2.6574802 0 0 0 -2.65625,-2.65821 z m 0,1.07813 a 1.580587,1.580587 0 0 1 1.58008,1.58008 1.580587,1.580587 0 0 1 -1.58008,1.58008 1.580587,1.580587 0 0 1 -1.58008,-1.58008 1.580587,1.580587 0 0 1 1.58008,-1.58008 z" style="display:inline;fill:#ffe680;enable-background:new"/><path id="path4628-5-1-4" d="m 140.49247,161.29162 a 2.6574802,2.6574802 0 0 0 -2.6582,2.65821 2.6574802,2.6574802 0 0 0 2.6582,2.6582 2.6574802,2.6574802 0 0 0 2.65625,-2.6582 2.6574802,2.6574802 0 0 0 -2.65625,-2.65821 z m 0,1.07813 a 1.580587,1.580587 0 0 1 1.58008,1.58008 1.580587,1.580587 0 0 1 -1.58008,1.58008 1.580587,1.580587 0 0 1 -1.58008,-1.58008 1.580587,1.580587 0 0 1 1.58008,-1.58008 z" style="display:inline;fill:#ffe680;enable-background:new"/><path id="path4628-2-9" d="m 149.52485,161.29162 a 2.6574802,2.6574802 0 0 0 -2.6582,2.65821 2.6574802,2.6574802 0 0 0 2.6582,2.6582 2.6574802,2.6574802 0 0 0 2.65625,-2.6582 2.6574802,2.6574802 0 0 0 -2.65625,-2.65821 z m 0,1.07813 a 1.580587,1.580587 0 0 1 1.58008,1.58008 1.580587,1.580587 0 0 1 -1.58008,1.58008 1.580587,1.580587 0 0 1 -1.58008,-1.58008 1.580587,1.580587 0 0 1 1.58008,-1.58008 z" style="display:inline;fill:#ffe680;enable-background:new"/><path id="path4628-5-17-2" d="m 158.55723,161.29162 a 2.6574802,2.6574802 0 0 0 -2.6582,2.65821 2.6574802,2.6574802 0 0 0 2.6582,2.6582 2.6574802,2.6574802 0 0 0 2.65625,-2.6582 2.6574802,2.6574802 0 0 0 -2.65625,-2.65821 z m 0,1.07813 a 1.580587,1.580587 0 0 1 1.58008,1.58008 1.580587,1.580587 0 0 1 -1.58008,1.58008 1.580587,1.580587 0 0 1 -1.58008,-1.58008 1.580587,1.580587 0 0 1 1.58008,-1.58008 z" style="display:inline;fill:#ffe680;enable-background:new"/><path id="path4628-8-2-6" d="m 167.58961,161.29162 a 2.6574802,2.6574802 0 0 0 -2.6582,2.65821 2.6574802,2.6574802 0 0 0 2.6582,2.6582 2.6574802,2.6574802 0 0 0 2.65625,-2.6582 2.6574802,2.6574802 0 0 0 -2.65625,-2.65821 z m 0,1.07813 a 1.580587,1.580587 0 0 1 1.58008,1.58008 1.580587,1.580587 0 0 1 -1.58008,1.58008 1.580587,1.580587 0 0 1 -1.58008,-1.58008 1.580587,1.580587 0 0 1 1.58008,-1.58008 z" style="display:inline;fill:#ffe680;enable-background:new"/><path id="path4628-5-1-1-1" d="m 176.62199,161.29162 a 2.6574802,2.6574802 0 0 0 -2.6582,2.65821 2.6574802,2.6574802 0 0 0 2.6582,2.6582 2.6574802,2.6574802 0 0 0 2.65625,-2.6582 2.6574802,2.6574802 0 0 0 -2.65625,-2.65821 z m 0,1.07813 a 1.580587,1.580587 0 0 1 1.58008,1.58008 1.580587,1.580587 0 0 1 -1.58008,1.58008 1.580587,1.580587 0 0 1 -1.58008,-1.58008 1.580587,1.580587 0 0 1 1.58008,-1.58008 z" style="display:inline;fill:#ffe680;enable-background:new"/><path id="path4628-1-0" d="m 185.65437,161.29162 a 2.6574802,2.6574802 0 0 0 -2.6582,2.65821 2.6574802,2.6574802 0 0 0 2.6582,2.6582 2.6574802,2.6574802 0 0 0 2.65625,-2.6582 2.6574802,2.6574802 0 0 0 -2.65625,-2.65821 z m 0,1.07813 a 1.580587,1.580587 0 0 1 1.58008,1.58008 1.580587,1.580587 0 0 1 -1.58008,1.58008 1.580587,1.580587 0 0 1 -1.58008,-1.58008 1.580587,1.580587 0 0 1 1.58008,-1.58008 z" style="display:inline;fill:#ffe680;enable-background:new"/><path id="path4628-5-5-3" d="m 194.68675,161.29162 a 2.6574802,2.6574802 0 0 0 -2.6582,2.65821 2.6574802,2.6574802 0 0 0 2.6582,2.6582 2.6574802,2.6574802 0 0 0 2.65625,-2.6582 2.6574802,2.6574802 0 0 0 -2.65625,-2.65821 z m 0,1.07813 a 1.580587,1.580587 0 0 1 1.58008,1.58008 1.580587,1.580587 0 0 1 -1.58008,1.58008 1.580587,1.580587 0 0 1 -1.58008,-1.58008 1.580587,1.580587 0 0 1 1.58008,-1.58008 z" style="display:inline;fill:#ffe680;enable-background:new"/><path id="path4628-8-9-0" d="m 203.71913,161.29162 a 2.6574802,2.6574802 0 0 0 -2.6582,2.65821 2.6574802,2.6574802 0 0 0 2.6582,2.6582 2.6574802,2.6574802 0 0 0 2.65625,-2.6582 2.6574802,2.6574802 0 0 0 -2.65625,-2.65821 z m 0,1.07813 a 1.580587,1.580587 0 0 1 1.58008,1.58008 1.580587,1.580587 0 0 1 -1.58008,1.58008 1.580587,1.580587 0 0 1 -1.58008,-1.58008 1.580587,1.580587 0 0 1 1.58008,-1.58008 z" style="display:inline;fill:#ffe680;enable-background:new"/><path id="path4628-5-1-0-9" d="m 212.75151,161.29162 a 2.6574802,2.6574802 0 0 0 -2.6582,2.65821 2.6574802,2.6574802 0 0 0 2.6582,2.6582 2.6574802,2.6574802 0 0 0 2.65625,-2.6582 2.6574802,2.6574802 0 0 0 -2.65625,-2.65821 z m 0,1.07813 a 1.580587,1.580587 0 0 1 1.58008,1.58008 1.580587,1.580587 0 0 1 -1.58008,1.58008 1.580587,1.580587 0 0 1 -1.58008,-1.58008 1.580587,1.580587 0 0 1 1.58008,-1.58008 z" style="display:inline;fill:#ffe680;enable-background:new"/><path id="path4628-3-2" d="m 221.78389,161.29162 a 2.6574802,2.6574802 0 0 0 -2.6582,2.65821 2.6574802,2.6574802 0 0 0 2.6582,2.6582 2.6574802,2.6574802 0 0 0 2.65625,-2.6582 2.6574802,2.6574802 0 0 0 -2.65625,-2.65821 z m 0,1.07813 a 1.580587,1.580587 0 0 1 1.58008,1.58008 1.580587,1.580587 0 0 1 -1.58008,1.58008 1.580587,1.580587 0 0 1 -1.58008,-1.58008 1.580587,1.580587 0 0 1 1.58008,-1.58008 z" style="display:inline;fill:#ffe680;enable-background:new"/><path id="path4628-5-8-0" d="m 230.81627,161.29162 a 2.6574802,2.6574802 0 0 0 -2.6582,2.65821 2.6574802,2.6574802 0 0 0 2.6582,2.6582 2.6574802,2.6574802 0 0 0 2.65625,-2.6582 2.6574802,2.6574802 0 0 0 -2.65625,-2.65821 z m 0,1.07813 a 1.580587,1.580587 0 0 1 1.58008,1.58008 1.580587,1.580587 0 0 1 -1.58008,1.58008 1.580587,1.580587 0 0 1 -1.58008,-1.58008 1.580587,1.580587 0 0 1 1.58008,-1.58008 z" style="display:inline;fill:#ffe680;enable-background:new"/><path id="path4628-8-6-66" d="m 239.84865,161.29162 a 2.6574802,2.6574802 0 0 0 -2.6582,2.65821 2.6574802,2.6574802 0 0 0 2.6582,2.6582 2.6574802,2.6574802 0 0 0 2.65625,-2.6582 2.6574802,2.6574802 0 0 0 -2.65625,-2.65821 z m 0,1.07813 a 1.580587,1.580587 0 0 1 1.58008,1.58008 1.580587,1.580587 0 0 1 -1.58008,1.58008 1.580587,1.580587 0 0 1 -1.58008,-1.58008 1.580587,1.580587 0 0 1 1.58008,-1.58008 z" style="display:inline;fill:#ffe680;enable-background:new"/><path id="path4628-5-1-6-6" d="m 248.88102,161.29162 a 2.6574802,2.6574802 0 0 0 -2.6582,2.65821 2.6574802,2.6574802 0 0 0 2.6582,2.6582 2.6574802,2.6574802 0 0 0 2.65625,-2.6582 2.6574802,2.6574802 0 0 0 -2.65625,-2.65821 z m 0,1.07813 a 1.580587,1.580587 0 0 1 1.58008,1.58008 1.580587,1.580587 0 0 1 -1.58008,1.58008 1.580587,1.580587 0 0 1 -1.58008,-1.58008 1.580587,1.580587 0 0 1 1.58008,-1.58008 z" style="display:inline;fill:#ffe680;enable-background:new"/><path id="path4628-8-6-6-0" d="m 257.9134,161.29162 a 2.6574802,2.6574802 0 0 0 -2.6582,2.65821 2.6574802,2.6574802 0 0 0 2.6582,2.6582 2.6574802,2.6574802 0 0 0 2.65625,-2.6582 2.6574802,2.6574802 0 0 0 -2.65625,-2.65821 z m 0,1.07813 a 1.580587,1.580587 0 0 1 1.58008,1.58008 1.580587,1.580587 0 0 1 -1.58008,1.58008 1.580587,1.580587 0 0 1 -1.58008,-1.58008 1.580587,1.580587 0 0 1 1.58008,-1.58008 z" style="display:inline;fill:#ffe680;enable-background:new"/><path id="path4628-5-1-6-7-9" d="m 266.94578,161.29162 a 2.6574802,2.6574802 0 0 0 -2.6582,2.65821 2.6574802,2.6574802 0 0 0 2.6582,2.6582 2.6574802,2.6574802 0 0 0 2.65625,-2.6582 2.6574802,2.6574802 0 0 0 -2.65625,-2.65821 z m 0,1.07813 a 1.580587,1.580587 0 0 1 1.58008,1.58008 1.580587,1.580587 0 0 1 -1.58008,1.58008 1.580587,1.580587 0 0 1 -1.58008,-1.58008 1.580587,1.580587 0 0 1 1.58008,-1.58008 z" style="display:inline;fill:#ffe680;enable-background:new"/><rect id="rect4175-4" width="20" height="25.455" x="2.59" y="19.994" style="fill:#ccc;enable-background:new"/><rect id="rect4254-9" width="20.059" height="1.283" x="2.511" y="-45.387" transform="scale(1,-1)" style="fill:#b3b3b3;enable-background:new"/><rect id="rect4298-6" width="20.069" height="1.556" x="2.584" y="19.844" style="fill:#e6e6e6;enable-background:new"/><rect id="rect4300-1" width="1.322" height="25.514" x="21.253" y="19.844" ry="0" style="fill:#4d4d4d;enable-background:new"/><rect id="rect5239-2-1" width="5.853" height="3.13" x="4.189" y="23.142" style="display:inline;fill:#999;fill-opacity:1;stroke:none;stroke-opacity:1;enable-background:new"/><rect id="rect5239-3-0-2" width="5.853" height="3.13" x="4.066" y="39.783" style="display:inline;fill:#999;fill-opacity:1;stroke:none;stroke-opacity:1;enable-background:new"/></svg>